<?xml version="1.0" encoding="iso-8859-1"?>
<!-- Uploaded to: SVG Repo, www.svgrepo.com, Generator: SVG Repo Mixer Tools -->
<svg height="800px" width="800px" version="1.1" id="Layer_1" xmlns="http://www.w3.org/2000/svg" xmlns:xlink="http://www.w3.org/1999/xlink" 
	 viewBox="0 0 370.99 370.99" xml:space="preserve">
<g>
	<g>
		<g>
<path style="fill:#F8E0A8; stroke:black; stroke-width:2;" d="M89.857,223.732c0,6.594,5.348,11.941,11.941,11.941H359.05c6.594,0,11.941-5.348,11.94-11.941
            c0-6.775-2.486-13.548-7.458-18.688c-9.944-10.278-16.439-30.273-14.436-44.434c2.002-14.16-7.883-27.767-21.969-30.236
            c-14.086-2.471-31.094-14.828-37.798-27.461c-6.702-12.633-22.699-17.832-35.546-11.551c-12.85,6.281-33.875,6.281-46.721,0
            c-12.848-6.281-28.844-1.082-35.547,11.551s-23.711,24.99-37.797,27.461c-14.087,2.47-23.973,16.076-21.969,30.236
            s-4.493,34.155-14.436,44.434C92.344,210.184,89.858,216.957,89.857,223.732z"/>

		</g>
		
			<ellipse transform="matrix(0.4618 -0.887 0.887 0.4618 -65.3304 210.2402)" style="fill:#F2D383;" cx="140.577" cy="158.954" rx="7.145" ry="14.05"/>
		
			<ellipse transform="matrix(-0.0783 -0.9969 0.9969 -0.0783 -90.5461 358.3573)" style="fill:#F2D383;" cx="120.384" cy="221.035" rx="7.143" ry="14.051"/>
		
			<ellipse transform="matrix(-0.967 0.2547 -0.2547 -0.967 415.5619 177.32)" style="fill:#F2D383;" cx="196.301" cy="115.565" rx="7.144" ry="14.051"/>
		
			<ellipse transform="matrix(0.4618 0.887 -0.887 0.4618 313.3602 -198.535)" style="fill:#F2D383;" cx="320.277" cy="158.948" rx="7.144" ry="14.05"/>
		
			<ellipse transform="matrix(-0.0783 0.9969 -0.9969 -0.0783 587.5125 -101.0523)" style="fill:#F2D383;" cx="340.47" cy="221.062" rx="7.144" ry="14.051"/>
		
			<ellipse transform="matrix(-0.967 -0.2546 0.2546 -0.967 490.9555 294.649)" style="fill:#F2D383;" cx="264.545" cy="115.553" rx="7.145" ry="14.052"/>
	</g>
</g>
<path style="fill:#F8E0A8;" d="M269.142,208.632c2.754-19.478-10.768-38.089-30.143-41.485
	c-11.077-1.943-25.419-12.363-30.691-22.298c-6.392-12.047-18.954-19.531-32.785-19.531c-5.609,0-10.988,1.239-15.986,3.683
	c-4.804,2.349-11.718,3.695-18.97,3.695c-3.939,0-7.763-0.409-11.217-1.148c-11.694,4.227-19.387,16.422-17.598,29.064
	c2.004,14.16-4.493,34.155-14.436,44.434c-4.973,5.14-7.458,11.912-7.459,18.688c0,6.594,5.348,11.941,11.941,11.941h172.907
	C270.442,227.207,268.028,216.498,269.142,208.632z"/>
<g>
	<g>
		<g>
			<path style="fill:#F8E0A8; stroke:black; stroke-width:2;" d="M0,270.353c0,6.594,5.348,11.941,11.941,11.941h257.252c6.594,0,11.941-5.348,11.94-11.941
				c0-6.775-2.486-13.548-7.458-18.687c-9.944-10.278-16.44-30.273-14.436-44.434c2.002-14.16-7.883-27.767-21.969-30.236
				c-14.086-2.471-31.094-14.828-37.798-27.461c-6.702-12.633-22.699-17.832-35.546-11.551c-12.85,6.281-33.875,6.281-46.721,0
				c-12.848-6.281-28.844-1.082-35.547,11.551s-23.711,24.99-37.797,27.461c-14.087,2.47-23.973,16.076-21.969,30.236
				c2.004,14.16-4.493,34.155-14.436,44.434C2.486,256.806,0.001,263.578,0,270.353z"/>
		</g>
		
			<ellipse transform="matrix(0.4618 -0.887 0.887 0.4618 -155.0494 155.6313)" style="fill:#F2D383;" cx="50.719" cy="205.58" rx="7.145" ry="14.05"/>
		
			<ellipse transform="matrix(-0.0783 -0.9969 0.9969 -0.0783 -233.9139 319.0547)" style="fill:#F2D383;" cx="30.532" cy="267.658" rx="7.143" ry="14.051"/>
		
			<ellipse transform="matrix(-0.967 0.2547 -0.2547 -0.967 250.6889 291.9027)" style="fill:#F2D383;" cx="106.446" cy="162.182" rx="7.144" ry="14.051"/>
		
			<ellipse transform="matrix(0.4618 0.887 -0.887 0.4618 306.3517 -93.7424)" style="fill:#F2D383;" cx="230.422" cy="205.569" rx="7.144" ry="14.05"/>
		
			<ellipse transform="matrix(-0.0783 0.9969 -0.9969 -0.0783 537.0924 38.8028)" style="fill:#F2D383;" cx="250.609" cy="267.682" rx="7.144" ry="14.051"/>
		
			<ellipse transform="matrix(-0.967 -0.2546 0.2546 -0.967 302.3333 363.488)" style="fill:#F2D383;" cx="174.689" cy="162.179" rx="7.145" ry="14.052"/>
	</g>
</g>
</svg>